HIERARCHY
ROOT Hips
{
	OFFSET 0.000000 71.427986 0.000000
	CHANNELS 6 Xposition Yposition Zposition Xrotation Yrotation Zrotation
	JOINT Pelvis
	{
		OFFSET 0.000000 0.000000 0.000000
		CHANNELS 3 Xrotation Yrotation Zrotation
		JOINT LeftUpLeg
		{
			OFFSET 6.797100 -2.508499 -1.318700
			CHANNELS 3 Xrotation Yrotation Zrotation
			JOINT LeftLeg
			{
				OFFSET 0.069008 -29.241863 0.690200
				CHANNELS 3 Xrotation Yrotation Zrotation
				JOINT LeftFoot
				{
					OFFSET -0.069008 -29.568123 -0.266800
					CHANNELS 3 Xrotation Yrotation Zrotation
					JOINT LeftToeBase
					{
						OFFSET 3.145500 -8.631000 16.059900
						CHANNELS 3 Xrotation Yrotation Zrotation
						End Site
						{
							OFFSET 0.000000 18.501587 0.000000
						}
					}
				}
			}
			JOINT Left_ShortSleeve
			{
				OFFSET 0.265923 -10.480953 1.153800
				CHANNELS 3 Xrotation Yrotation Zrotation
				End Site
				{
					OFFSET 1.725763 19.823879 0.000000
				}
			}
		}
		JOINT RightUpLeg
		{
			OFFSET -6.797100 -2.508499 -1.318700
			CHANNELS 3 Xrotation Yrotation Zrotation
			JOINT RightLeg
			{
				OFFSET -0.082453 -29.241932 0.688000
				CHANNELS 3 Xrotation Yrotation Zrotation
				JOINT RightFoot
				{
					OFFSET 0.082453 -29.568058 -0.264600
					CHANNELS 3 Xrotation Yrotation Zrotation
					JOINT RightToeBase
					{
						OFFSET -3.115300 -8.682800 16.113400
						CHANNELS 3 Xrotation Yrotation Zrotation
						End Site
						{
							OFFSET 0.000000 18.567114 0.000000
						}
					}
				}
			}
			JOINT Right_ShortSleeve
			{
				OFFSET -0.265923 -10.480953 1.153800
				CHANNELS 3 Xrotation Yrotation Zrotation
				End Site
				{
					OFFSET -1.725766 19.823910 0.000000
				}
			}
		}
	}
	JOINT Spine
	{
		OFFSET 0.000000 13.368103 0.470500
		CHANNELS 3 Xrotation Yrotation Zrotation
		JOINT Spine1
		{
			OFFSET 0.147000 13.837402 0.538800
			CHANNELS 3 Xrotation Yrotation Zrotation
			JOINT Spine2
			{
				OFFSET 0.168000 16.242897 -1.435500
				CHANNELS 3 Xrotation Yrotation Zrotation
				JOINT Neck
				{
					OFFSET 0.217200 18.631500 -1.679100
					CHANNELS 3 Xrotation Yrotation Zrotation
					JOINT Head
					{
						OFFSET 0.000000 6.599396 1.385900
						CHANNELS 3 Xrotation Yrotation Zrotation
						JOINT Hat
						{
							OFFSET -0.532200 27.220596 -10.096100
							CHANNELS 3 Xrotation Yrotation Zrotation
							End Site
							{
								OFFSET 0.000000 22.029861 0.000000
							}
						}
						JOINT HairD
						{
							OFFSET -10.777400 17.437393 -1.325900
							CHANNELS 3 Xrotation Yrotation Zrotation
							JOINT HairD1
							{
								OFFSET -3.290299 -11.051193 1.062200
								CHANNELS 3 Xrotation Yrotation Zrotation
								End Site
								{
									OFFSET 0.000000 11.579437 0.000000
								}
							}
						}
						JOINT HairB
						{
							OFFSET -10.777400 17.437393 1.467900
							CHANNELS 3 Xrotation Yrotation Zrotation
							JOINT HairB1
							{
								OFFSET -1.561200 -12.956299 3.590200
								CHANNELS 3 Xrotation Yrotation Zrotation
								End Site
								{
									OFFSET 0.000000 13.534866 0.000000
								}
							}
						}
						JOINT HairA
						{
							OFFSET 9.713100 17.437393 1.467900
							CHANNELS 3 Xrotation Yrotation Zrotation
							JOINT HairA1
							{
								OFFSET 1.561200 -12.956299 3.590200
								CHANNELS 3 Xrotation Yrotation Zrotation
								End Site
								{
									OFFSET 0.000000 13.534866 0.000000
								}
							}
						}
						JOINT HairC
						{
							OFFSET 9.713100 17.437393 -1.325900
							CHANNELS 3 Xrotation Yrotation Zrotation
							JOINT HairC1
							{
								OFFSET 3.290300 -11.051193 1.062200
								CHANNELS 3 Xrotation Yrotation Zrotation
								End Site
								{
									OFFSET 0.000000 11.579437 0.000000
								}
							}
						}
					}
				}
				JOINT LeftShoulder
				{
					OFFSET 5.101800 15.108002 -2.763700
					CHANNELS 3 Xrotation Yrotation Zrotation
					JOINT LeftArm
					{
						OFFSET 9.825497 2.506317 -1.597400
						CHANNELS 3 Xrotation Yrotation Zrotation
						JOINT LeftForeArm
						{
							OFFSET 21.966244 0.000000 0.000000
							CHANNELS 3 Xrotation Yrotation Zrotation
							JOINT LeftHand
							{
								OFFSET 33.879036 0.000000 0.000000
								CHANNELS 3 Xrotation Yrotation Zrotation
								JOINT LeftHandThumb1
								{
									OFFSET 6.715286 -2.359680 3.363841
									CHANNELS 3 Xrotation Yrotation Zrotation
									JOINT LeftHandThumb2
									{
										OFFSET 2.507072 -1.447464 1.447461
										CHANNELS 3 Xrotation Yrotation Zrotation
										JOINT LeftHandThumb3
										{
											OFFSET 2.898338 -1.673355 1.673357
											CHANNELS 3 Xrotation Yrotation Zrotation
											End Site
											{
												OFFSET -0.295959 3.727692 -0.131651
											}
										}
									}
								}
								JOINT LeftHandIndex1
								{
									OFFSET 14.190811 -0.254547 3.840278
									CHANNELS 3 Xrotation Yrotation Zrotation
									JOINT LeftHandIndex2
									{
										OFFSET 3.551727 0.000000 -0.000000
										CHANNELS 3 Xrotation Yrotation Zrotation
										JOINT LeftHandIndex3
										{
											OFFSET 2.894196 0.000000 0.000000
											CHANNELS 3 Xrotation Yrotation Zrotation
											End Site
											{
												OFFSET -1.000603 2.690872 0.366626
											}
										}
									}
								}
								JOINT LeftHandMiddle1
								{
									OFFSET 13.776489 0.000000 0.000000
									CHANNELS 3 Xrotation Yrotation Zrotation
									JOINT LeftHandMiddle2
									{
										OFFSET 3.438232 0.000000 0.000000
										CHANNELS 3 Xrotation Yrotation Zrotation
										JOINT LeftHandMiddle3
										{
											OFFSET 3.691551 0.000000 0.000000
											CHANNELS 3 Xrotation Yrotation Zrotation
											End Site
											{
												OFFSET -1.082298 3.499527 0.457670
											}
										}
									}
								}
								JOINT LeftHandRing1
								{
									OFFSET 13.966164 -0.268127 -3.067488
									CHANNELS 3 Xrotation Yrotation Zrotation
									JOINT LeftHandRing2
									{
										OFFSET 3.162567 0.000000 0.000000
										CHANNELS 3 Xrotation Yrotation Zrotation
										JOINT LeftHandRing3
										{
											OFFSET 3.324348 0.000000 0.000000
											CHANNELS 3 Xrotation Yrotation Zrotation
											End Site
											{
												OFFSET -0.861900 3.184998 0.405154
											}
										}
									}
								}
								JOINT LeftHandPinky1
								{
									OFFSET 13.131393 -0.168503 -5.746925
									CHANNELS 3 Xrotation Yrotation Zrotation
									JOINT LeftHandPinky2
									{
										OFFSET 2.849182 0.000000 0.000000
										CHANNELS 3 Xrotation Yrotation Zrotation
										JOINT LeftHandPinky3
										{
											OFFSET 2.805038 0.000000 0.000000
											CHANNELS 3 Xrotation Yrotation Zrotation
											End Site
											{
												OFFSET -0.882500 2.642609 0.325652
											}
										}
									}
								}
							}
							JOINT Left_Sleeve
							{
								OFFSET 6.592125 -0.646545 0.805568
								CHANNELS 3 Xrotation Yrotation Zrotation
								End Site
								{
									OFFSET -0.000179 20.275787 -0.000000
								}
							}
						}
					}
				}
				JOINT RightShoulder
				{
					OFFSET -5.731700 15.108002 -2.763700
					CHANNELS 3 Xrotation Yrotation Zrotation
					JOINT RightArm
					{
						OFFSET -9.825497 2.506317 -1.597400
						CHANNELS 3 Xrotation Yrotation Zrotation
						JOINT RightForeArm
						{
							OFFSET -21.966242 0.000000 0.000000
							CHANNELS 3 Xrotation Yrotation Zrotation
							JOINT RightHand
							{
								OFFSET -33.879032 0.000000 0.000000
								CHANNELS 3 Xrotation Yrotation Zrotation
								JOINT RightHandThumb1
								{
									OFFSET -6.715286 -2.359680 3.363841
									CHANNELS 3 Xrotation Yrotation Zrotation
									JOINT RightHandThumb2
									{
										OFFSET -2.507072 -1.447464 1.447461
										CHANNELS 3 Xrotation Yrotation Zrotation
										JOINT RightHandThumb3
										{
											OFFSET -2.898338 -1.673355 1.673357
											CHANNELS 3 Xrotation Yrotation Zrotation
											End Site
											{
												OFFSET 0.295959 3.727692 -0.131651
											}
										}
									}
								}
								JOINT RightHandIndex1
								{
									OFFSET -14.190811 -0.254547 3.840278
									CHANNELS 3 Xrotation Yrotation Zrotation
									JOINT RightHandIndex2
									{
										OFFSET -3.551727 0.000000 -0.000000
										CHANNELS 3 Xrotation Yrotation Zrotation
										JOINT RightHandIndex3
										{
											OFFSET -2.894196 0.000000 0.000000
											CHANNELS 3 Xrotation Yrotation Zrotation
											End Site
											{
												OFFSET 1.000603 2.690872 0.366626
											}
										}
									}
								}
								JOINT RightHandMiddle1
								{
									OFFSET -13.776489 0.000000 0.000000
									CHANNELS 3 Xrotation Yrotation Zrotation
									JOINT RightHandMiddle2
									{
										OFFSET -3.438232 0.000000 0.000000
										CHANNELS 3 Xrotation Yrotation Zrotation
										JOINT RightHandMiddle3
										{
											OFFSET -3.691551 0.000000 0.000000
											CHANNELS 3 Xrotation Yrotation Zrotation
											End Site
											{
												OFFSET 1.082298 3.499527 0.457670
											}
										}
									}
								}
								JOINT RightHandRing1
								{
									OFFSET -13.966164 -0.268127 -3.067488
									CHANNELS 3 Xrotation Yrotation Zrotation
									JOINT RightHandRing2
									{
										OFFSET -3.162567 0.000000 0.000000
										CHANNELS 3 Xrotation Yrotation Zrotation
										JOINT RightHandRing3
										{
											OFFSET -3.324348 0.000000 0.000000
											CHANNELS 3 Xrotation Yrotation Zrotation
											End Site
											{
												OFFSET 0.861900 3.184998 0.405154
											}
										}
									}
								}
								JOINT RightHandPinky1
								{
									OFFSET -13.131393 -0.168503 -5.746925
									CHANNELS 3 Xrotation Yrotation Zrotation
									JOINT RightHandPinky2
									{
										OFFSET -2.849182 0.000000 0.000000
										CHANNELS 3 Xrotation Yrotation Zrotation
										JOINT RightHandPinky3
										{
											OFFSET -2.805038 0.000000 0.000000
											CHANNELS 3 Xrotation Yrotation Zrotation
											End Site
											{
												OFFSET 0.882500 2.642609 0.325652
											}
										}
									}
								}
							}
							JOINT Right_Sleeve
							{
								OFFSET -6.592125 -0.646545 0.805568
								CHANNELS 3 Xrotation Yrotation Zrotation
								End Site
								{
									OFFSET 0.000179 20.275787 -0.000000
								}
							}
						}
					}
				}
				JOINT Bind_Right_JacketString
				{
					OFFSET -3.534800 11.969597 7.200700
					CHANNELS 3 Xrotation Yrotation Zrotation
					JOINT Bind_Right_JacketString1
					{
						OFFSET -0.319900 -6.102600 2.794100
						CHANNELS 3 Xrotation Yrotation Zrotation
						End Site
						{
							OFFSET 0.000000 6.719452 0.000000
						}
					}
				}
				JOINT Bind_Left_JacketString
				{
					OFFSET 2.904800 11.969597 7.200700
					CHANNELS 3 Xrotation Yrotation Zrotation
					JOINT Bind_Left_JacketString1
					{
						OFFSET 0.364800 -5.904503 3.186800
						CHANNELS 3 Xrotation Yrotation Zrotation
						End Site
						{
							OFFSET 0.000000 6.719513 0.000000
						}
					}
				}
				JOINT HairE
				{
					OFFSET 5.915200 17.612701 -11.592200
					CHANNELS 3 Xrotation Yrotation Zrotation
					JOINT HairE1
					{
						OFFSET 0.289200 -7.171898 -1.284500
						CHANNELS 3 Xrotation Yrotation Zrotation
						End Site
						{
							OFFSET 0.000000 7.291756 0.000000
						}
					}
				}
				JOINT HairF
				{
					OFFSET -0.864800 17.612701 -11.592200
					CHANNELS 3 Xrotation Yrotation Zrotation
					JOINT HairF1
					{
						OFFSET 0.000000 -14.087097 -2.127501
						CHANNELS 3 Xrotation Yrotation Zrotation
						End Site
						{
							OFFSET 0.000000 14.246841 0.000000
						}
					}
				}
				JOINT HairG
				{
					OFFSET -8.087700 17.612701 -11.592200
					CHANNELS 3 Xrotation Yrotation Zrotation
					JOINT HairG1
					{
						OFFSET -0.293600 -6.081398 -0.910100
						CHANNELS 3 Xrotation Yrotation Zrotation
						End Site
						{
							OFFSET 0.000000 6.156120 0.000000
						}
					}
				}
			}
		}
	}
	JOINT Pouch
	{
		OFFSET 0.000000 4.394501 10.847300
		CHANNELS 3 Xrotation Yrotation Zrotation
		End Site
		{
			OFFSET 0.000000 21.880577 0.000000
		}
	}
	JOINT Bag
	{
		OFFSET -13.229000 4.813004 -0.593300
		CHANNELS 3 Xrotation Yrotation Zrotation
		End Site
		{
			OFFSET 0.000000 21.880577 0.000000
		}
	}
	JOINT OccupyGuyFacialAnim_Joint
	{
		OFFSET 1.000000 -70.206398 -1.655000
		CHANNELS 3 Xrotation Yrotation Zrotation
		End Site
		{
			OFFSET 0.000000 21.880577 0.000000
		}
	}
}
MOTION
Frames: 4
Frame Time: 0.033333
-82.250824 64.639557 0.385086 5.485533 -8.573364 10.212123 0.000000 0.000001 0.000000 -50.072059 -14.695497 -8.272508 51.973928 33.010017 10.379722 10.997895 -1.202858 1.198260 0.000001 0.000000 -0.000000 -0.000000 0.000003 0.000000 -56.208441 -36.686777 -45.777871 57.337710 26.040298 -0.427943 -24.698275 0.713472 -8.731436 0.000000 0.000000 0.000000 -0.000001 0.000001 -0.000000 -1.539556 0.596800 0.479223 -3.082704 1.070383 0.898447 -3.082704 1.070385 0.898449 2.839722 -20.811846 -1.013736 8.432844 -42.047963 22.969426 0.000000 -0.000000 0.000001 0.000000 -0.000000 0.000001 0.000000 -0.000000 0.000001 0.000000 -0.000000 -0.000001 0.000000 -0.000000 -0.000001 0.000000 -0.000000 -0.000001 0.000000 -0.000000 -0.000001 0.000000 -0.000000 0.000001 0.000000 -0.000000 0.000001 0.576755 4.027105 -9.675538 -9.837044 -17.308060 -70.060044 27.718721 -91.887225 45.950928 -97.946006 -25.620234 -10.221119 3.592087 4.185665 -5.133818 1.252896 4.302588 1.889377 -0.000000 -0.000000 -0.000004 7.554901 5.560428 -33.410379 -14.917828 -6.767452 -80.641906 -0.000001 0.000001 0.000003 -0.349198 -1.566792 -62.979214 -6.177644 -6.585496 -60.286173 0.000001 0.000000 -0.000005 -5.286470 4.624202 -73.484701 0.757944 -3.521241 -58.282837 -0.000001 0.000000 -0.000003 -16.248781 1.424897 -86.150590 2.608779 -7.578008 -55.784727 0.000001 -0.000001 0.000003 0.000002 -0.000002 0.000001 9.261016 15.280424 -2.249509 29.141835 49.677161 6.413263 -5.093391 91.451090 5.397383 -12.512025 33.678587 -17.668279 15.407459 -4.518738 17.011006 11.550401 4.015415 -20.411400 -0.000002 -0.000002 0.000003 1.857091 -0.976120 4.781790 -1.775916 -0.095289 22.317068 0.000001 -0.000000 0.000000 3.631174 5.779687 48.858819 -9.397607 -0.919667 110.759775 -0.000001 0.000003 -0.000004 -8.676846 -5.659690 54.892308 -4.714137 8.864033 96.803773 -0.000001 0.000000 0.000003 -12.562933 0.077575 69.885300 -3.484595 14.093111 79.770558 0.000001 0.000002 -0.000004 -0.000001 0.000000 -0.000001 0.000000 0.000000 0.000000 -0.000000 0.000000 0.000000 0.000000 0.000000 0.000000 0.000000 0.000000 0.000000 0.000000 0.000000 0.000000 -0.000000 0.000000 0.000000 0.000000 0.000000 0.000000 0.000000 0.000000 0.000000 0.000000 0.000000 0.000000 -0.000000 0.000000 0.000000 0.000000 0.000001 0.000000 0.000000 0.000001 0.000000 0.000000 0.000001 0.000000 
-84.842178 65.136299 0.354577 5.583985 -8.933356 10.457515 0.000000 0.000001 0.000000 -51.269965 -13.853130 -11.718708 49.626816 31.406518 8.302887 10.402946 -1.564936 -2.968767 -0.000000 -0.000000 -0.000001 0.000001 0.000003 -0.000000 -53.729581 -39.127063 -43.758771 55.219265 26.254817 0.898210 -25.400215 1.696352 -11.088483 0.000000 0.000002 -0.000000 0.000002 0.000000 -0.000000 -1.512359 0.524553 0.384883 -3.030360 1.005604 0.939052 -3.030360 1.005603 0.939052 3.301376 -20.642157 -0.228956 7.858963 -41.780995 22.489562 0.000002 0.000000 -0.000000 0.000002 0.000000 -0.000000 0.000002 0.000000 -0.000001 0.000002 0.000000 -0.000000 0.000002 0.000001 -0.000001 0.000002 0.000000 -0.000000 0.000002 0.000001 -0.000001 0.000002 0.000000 -0.000000 0.000002 0.000000 -0.000000 0.595724 4.334498 -9.657312 -8.859770 -16.403362 -70.729211 3.845442 -93.791106 21.646709 -97.019197 -25.929155 -9.305477 3.592087 4.185660 -5.133817 1.252896 4.302591 1.889379 -0.000000 -0.000000 -0.000003 7.554900 5.560427 -33.410376 -14.917832 -6.767454 -80.641906 -0.000000 0.000001 0.000009 -0.349198 -1.566794 -62.979214 -6.177641 -6.585496 -60.286173 0.000001 -0.000000 -0.000003 -5.286473 4.624204 -73.484701 0.757944 -3.521243 -58.282844 -0.000000 0.000000 -0.000001 -16.248781 1.424894 -86.150590 2.608777 -7.578008 -55.784727 -0.000001 0.000000 -0.000001 0.000001 -0.000001 0.000000 9.197461 15.623677 -2.021396 29.967626 48.442898 5.710474 -5.337044 93.288547 5.754233 -12.430303 33.128600 -17.890427 15.407460 -4.518740 17.011006 11.550406 4.015419 -20.411399 0.000001 0.000001 -0.000000 1.857091 -0.976122 4.781790 -1.775915 -0.095290 22.317061 0.000001 0.000000 -0.000001 3.631180 5.779692 48.858822 -9.397609 -0.919669 110.759768 0.000000 -0.000001 -0.000001 -8.676840 -5.659691 54.892308 -4.714138 8.864034 96.803773 -0.000001 0.000001 -0.000002 -12.562932 0.077573 69.885300 -3.484598 14.093105 79.770544 -0.000001 0.000003 -0.000004 -0.000000 0.000002 0.000000 -0.000000 -0.000001 -0.000000 -0.000000 0.000000 -0.000000 -0.000000 -0.000001 -0.000000 -0.000000 -0.000001 -0.000000 -0.000000 -0.000001 -0.000000 -0.000000 0.000000 -0.000000 -0.000000 -0.000001 -0.000000 -0.000000 -0.000001 -0.000000 -0.000000 -0.000001 -0.000000 -0.000000 0.000000 -0.000000 0.000000 0.000001 0.000000 0.000000 0.000001 0.000000 0.000000 0.000001 0.000000 
-87.338791 65.494896 0.306231 5.670289 -9.067169 10.282054 0.000000 0.000001 0.000000 -51.394151 -13.804069 -14.790573 44.139083 28.890986 6.476562 13.472283 -1.955517 -7.968548 -0.000000 -0.000000 0.000000 -0.000000 0.000000 -0.000000 -50.740762 -41.785274 -41.371590 52.763881 26.424352 2.533038 -25.901580 2.700276 -13.358475 0.000000 0.000000 -0.000000 -0.000000 -0.000001 -0.000000 -1.501962 0.471596 0.406154 -3.010902 0.961168 1.096031 -3.010901 0.961167 1.096032 3.236610 -20.659314 0.508603 7.485966 -41.601005 21.985474 0.000002 0.000002 0.000002 0.000002 0.000002 0.000002 0.000002 0.000002 0.000002 0.000002 0.000002 0.000001 0.000004 0.000000 -0.000000 0.000002 0.000002 0.000001 0.000004 0.000000 -0.000000 0.000002 0.000002 0.000002 0.000002 0.000002 0.000002 0.593973 4.417129 -9.577563 -8.118352 -15.713146 -71.138353 -3.429161 -95.402347 14.247581 -96.451355 -26.116191 -8.506787 3.592090 4.185659 -5.133822 1.252895 4.302588 1.889374 0.000001 -0.000001 0.000001 7.554906 5.560423 -33.410379 -14.917823 -6.767453 -80.641913 0.000001 0.000001 0.000004 -0.349197 -1.566793 -62.979221 -6.177641 -6.585496 -60.286166 -0.000002 -0.000002 -0.000007 -5.286471 4.624203 -73.484708 0.757943 -3.521242 -58.282844 -0.000001 0.000000 -0.000003 -16.248778 1.424893 -86.150590 2.608775 -7.578012 -55.784730 0.000000 0.000000 -0.000001 0.000002 0.000002 -0.000001 9.163946 15.767326 -1.717527 30.455677 47.673511 5.105279 -4.238195 94.607990 4.682087 -12.437442 32.618340 -17.835861 15.407455 -4.518736 17.011004 11.550405 4.015416 -20.411407 0.000000 0.000000 0.000004 1.857090 -0.976116 4.781789 -1.775913 -0.095286 22.317059 0.000001 -0.000001 0.000002 3.631175 5.779690 48.858822 -9.397606 -0.919669 110.759775 -0.000001 0.000002 -0.000006 -8.676845 -5.659691 54.892308 -4.714133 8.864032 96.803766 0.000001 -0.000001 -0.000004 -12.562932 0.077572 69.885293 -3.484592 14.093105 79.770551 0.000001 -0.000002 0.000000 0.000001 0.000001 0.000001 -0.000000 -0.000001 0.000000 0.000000 0.000000 0.000001 -0.000000 -0.000001 0.000000 -0.000000 -0.000001 0.000000 -0.000000 -0.000001 0.000000 0.000000 0.000000 0.000001 -0.000000 -0.000001 0.000000 -0.000000 -0.000001 0.000000 -0.000000 -0.000001 0.000000 0.000000 0.000000 0.000001 0.000000 0.000001 0.000000 0.000000 0.000001 0.000000 0.000000 0.000001 0.000000 
-89.793610 65.682068 0.262561 5.714395 -9.200226 9.774568 0.000001 0.000000 0.000000 -52.008960 -13.756281 -18.038210 40.011094 27.281990 5.156974 14.139035 -2.246463 -14.013327 0.000001 -0.000001 -0.000000 -0.000000 0.000004 0.000003 -47.053846 -44.384372 -38.249886 50.269342 26.493884 4.242528 -26.373500 3.661110 -15.547621 -0.000000 -0.000003 -0.000000 0.000001 0.000001 -0.000000 -1.479503 0.489389 0.528997 -2.967387 1.031001 1.329289 -2.967389 1.031001 1.329288 2.950869 -20.618017 1.207280 7.030573 -41.287339 21.452451 -0.000002 -0.000002 0.000002 -0.000002 -0.000002 0.000002 -0.000002 -0.000002 0.000001 -0.000002 -0.000002 -0.000000 -0.000002 0.000000 -0.000000 -0.000002 -0.000002 -0.000000 -0.000002 0.000000 -0.000000 -0.000002 -0.000002 0.000002 -0.000002 -0.000002 0.000002 0.566132 4.441768 -9.244806 -7.807553 -15.604167 -71.826857 -8.858961 -96.901540 8.724466 -95.751466 -26.771270 -7.440760 3.592087 4.185657 -5.133824 1.252894 4.302586 1.889372 -0.000001 0.000001 -0.000000 7.554900 5.560426 -33.410379 -14.917828 -6.767453 -80.641913 0.000001 0.000001 0.000003 -0.349192 -1.566796 -62.979221 -6.177643 -6.585499 -60.286173 0.000002 -0.000003 -0.000005 -5.286471 4.624206 -73.484708 0.757942 -3.521241 -58.282844 -0.000001 -0.000001 -0.000001 -16.248778 1.424894 -86.150597 2.608773 -7.578010 -55.784737 -0.000002 0.000001 -0.000001 -0.000001 0.000001 0.000000 9.100608 16.070557 -1.291802 30.829258 46.131029 4.300069 -1.887184 96.180538 2.152255 -12.667586 32.399774 -17.486398 15.407457 -4.518740 17.011004 11.550399 4.015415 -20.411407 -0.000001 0.000000 -0.000000 1.857092 -0.976121 4.781784 -1.775914 -0.095289 22.317061 -0.000004 -0.000001 -0.000002 3.631181 5.779688 48.858819 -9.397615 -0.919668 110.759768 -0.000002 -0.000001 0.000003 -8.676846 -5.659688 54.892311 -4.714135 8.864031 96.803773 -0.000001 0.000001 -0.000003 -12.562930 0.077575 69.885293 -3.484593 14.093110 79.770551 -0.000000 -0.000001 0.000002 0.000001 0.000001 -0.000001 -0.000000 0.000000 -0.000000 -0.000000 0.000000 -0.000000 -0.000000 0.000000 -0.000000 -0.000000 0.000000 -0.000000 -0.000000 0.000000 -0.000000 -0.000000 0.000000 -0.000000 -0.000000 0.000000 -0.000000 -0.000000 0.000000 -0.000000 -0.000000 0.000000 -0.000000 -0.000000 0.000000 -0.000000 0.000001 0.000000 0.000000 0.000001 0.000000 0.000000 0.000001 0.000000 0.000000 
